HIERARCHY
ROOT Hips
{
	OFFSET 0.000000 0.000000 0.000000 
	CHANNELS 6 Xposition Yposition Zposition Zrotation Yrotation Xrotation
	JOINT LeftUpLeg
	{
		OFFSET 1.363060 -1.794630 0.839290 
		CHANNELS 3 Zrotation Yrotation Xrotation
		JOINT LeftLeg
		{
			OFFSET 2.448110 -6.726130 0.000000 
			CHANNELS 3 Zrotation Yrotation Xrotation
			JOINT LeftFoot
			{
				OFFSET 2.562200 -7.039590 0.000000 
				CHANNELS 3 Zrotation Yrotation Xrotation
				JOINT LeftToeBase
				{
					OFFSET 0.157640 -0.433110 2.322550 
					CHANNELS 3 Zrotation Yrotation Xrotation
					End Site
					{
						OFFSET 0.000000 0.000000 0.000000 
					}
				}
			}
		}
	}
	JOINT RightUpLeg
	{
		OFFSET -1.305520 -1.794630 0.839290 
		CHANNELS 3 Zrotation Yrotation Xrotation
		JOINT RightLeg
		{
			OFFSET -2.542530 -6.985550 0.000000 
			CHANNELS 3 Zrotation Yrotation Xrotation
			JOINT RightFoot
			{
				OFFSET -2.568260 -7.056230 0.000000 
				CHANNELS 3 Zrotation Yrotation Xrotation
				JOINT RightToeBase
				{
					OFFSET -0.164730 -0.452590 2.363150 
					CHANNELS 3 Zrotation Yrotation Xrotation
					End Site
					{
						OFFSET 0.000000 0.000000 0.000000 
					}
				}
			}
		}
	}
	JOINT Spine
	{
		OFFSET 0.028270 2.035590 -0.193380 
		CHANNELS 3 Zrotation Yrotation Xrotation
		JOINT Spine1
		{
			OFFSET 0.056720 2.048850 -0.042750 
			CHANNELS 3 Zrotation Yrotation Xrotation
			JOINT Neck1
			{
				OFFSET -0.054170 1.746240 0.172020 
				CHANNELS 3 Zrotation Yrotation Xrotation
				JOINT Head
				{
					OFFSET 0.104070 1.761360 -0.123970 
					CHANNELS 3 Zrotation Yrotation Xrotation
					End Site
					{
						OFFSET 0.000000 0.000000 0.000000 
					}
				}
			}
			JOINT LeftArm
			{
				OFFSET 3.362410 1.200890 -0.311210 
				CHANNELS 3 Zrotation Yrotation Xrotation
				JOINT LeftForeArm
				{
					OFFSET 4.983000 -0.000000 -0.000000 
					CHANNELS 3 Zrotation Yrotation Xrotation
					JOINT LeftHand
					{
						OFFSET 3.483560 -0.000000 -0.000000 
						CHANNELS 3 Zrotation Yrotation Xrotation
						JOINT LeftHandIndex1
						{
							OFFSET 0.715260 -0.000000 -0.000000 
							CHANNELS 3 Zrotation Yrotation Xrotation
							End Site
							{
								OFFSET 0.000000 0.000000 0.000000 
							}
						}
					}
				}
			}
			JOINT RightArm
			{
				OFFSET -3.136600 1.374050 -0.404650 
				CHANNELS 3 Zrotation Yrotation Xrotation
				JOINT RightForeArm
				{
					OFFSET -5.241900 -0.000000 -0.000000 
					CHANNELS 3 Zrotation Yrotation Xrotation
					JOINT RightHand
					{
						OFFSET -3.444170 -0.000000 -0.000000 
						CHANNELS 3 Zrotation Yrotation Xrotation
						JOINT RightHandIndex1
						{
							OFFSET -0.622530 -0.000000 -0.000000 
							CHANNELS 3 Zrotation Yrotation Xrotation
							End Site
							{
								OFFSET 0.000000 0.000000 0.000000 
							}
						}
					}
				}
			}
		}
	}
}
MOTION
Frames: 16
Frame Time: 0.041667
6.378809 16.251024 22.302402 -1.618493 -2.484766 6.409058 -7.256797 10.877410 -35.513703 13.402216 19.681648 66.284481 0.719945 3.227198 1.676607 0.553600 -4.766400 -13.243500 12.583302 -7.643888 -36.988437 -12.462383 -20.192009 66.052203 -9.102324 16.756373 -0.342280 -0.633000 5.090500 -14.166700 0.963782 -0.868708 -4.720195 -0.866292 -0.281794 -3.108755 4.551818 -0.430366 9.678416 1.391800 -0.369400 11.731500 -46.020979 -39.820510 10.790966 79.994490 -49.235753 -64.350954 0.971234 -1.446198 -1.476087 -7.125000 0.000000 0.000000 25.705154 38.951706 11.833909 -75.803856 48.017776 -57.638678 -2.019995 1.597309 -13.910643 7.125000 0.000000 0.000000 
6.379737 16.238265 22.296139 -1.616340 -2.436988 6.386277 -7.253287 10.869428 -35.549717 13.441813 19.697043 66.401694 0.740168 3.190717 1.561166 0.566800 -4.821900 -13.401300 12.572959 -7.681520 -37.033823 -12.524077 -20.207888 66.186372 -9.134604 16.848577 -0.457135 -0.646600 5.144100 -14.319900 0.965270 -0.866658 -4.715828 -0.846739 -0.279995 -3.104751 4.562757 -0.431367 9.700646 1.410200 -0.372700 11.751300 -46.145749 -39.853317 10.643066 80.216859 -49.282241 -64.609629 0.969294 -1.426375 -1.354761 -7.125000 0.000000 0.000000 25.728591 38.914568 11.636249 -76.055991 48.073868 -57.972530 -2.015180 1.570509 -13.831772 7.125000 0.000000 0.000000 
6.380897 16.226667 22.290572 -1.617671 -2.401956 6.368914 -7.252595 10.874274 -35.584377 13.476431 19.709442 66.503144 0.758987 3.159083 1.444759 0.577500 -4.866300 -13.527500 12.573298 -7.714032 -37.080871 -12.579737 -20.223216 66.310768 -9.154413 16.902981 -0.564002 -0.657400 5.185800 -14.439400 0.965646 -0.858309 -4.711586 -0.830233 -0.275679 -3.096294 4.580085 -0.436529 9.718899 1.437300 -0.377800 11.770900 -46.277988 -39.887816 10.517311 80.420261 -49.325116 -64.842118 0.967852 -1.406707 -1.187736 -7.125000 0.000000 0.000000 25.765667 38.879010 11.461364 -76.297011 48.127323 -58.287869 -2.010062 1.545814 -13.743775 7.125000 0.000000 0.000000 
6.382057 16.216112 22.285584 -1.620985 -2.379338 6.358853 -7.257624 10.891119 -35.621979 13.507218 19.719228 66.592875 0.773579 3.136212 1.330138 0.585900 -4.900900 -13.626200 12.582300 -7.741661 -37.135275 -12.631659 -20.239208 66.432439 -9.160136 16.918068 -0.659132 -0.666400 5.220600 -14.538800 0.963978 -0.843054 -4.707930 -0.827346 -0.268585 -3.087003 4.599706 -0.446923 9.732557 1.466300 -0.384000 11.788600 -46.413439 -39.922344 10.418549 80.610162 -49.365168 -65.051809 0.966915 -1.387647 -1.000501 -7.125000 0.000000 0.000000 25.825442 38.843582 11.312574 -76.531153 48.178152 -58.589348 -2.005101 1.522896 -13.653407 7.125000 0.000000 0.000000 
6.383564 16.206601 22.281061 -1.624837 -2.368048 6.355599 -7.269338 10.916168 -35.665186 13.535683 19.727155 66.676039 0.782490 3.123593 1.222028 0.592000 -4.925900 -13.697400 12.596634 -7.762842 -37.200601 -12.681153 -20.256313 66.555250 -9.154133 16.905996 -0.735283 -0.672400 5.243400 -14.604200 0.960447 -0.822136 -4.705450 -0.836984 -0.259228 -3.081415 4.620169 -0.465012 9.741821 1.494400 -0.392500 11.805200 -46.554731 -39.952715 10.347218 80.792097 -49.403594 -65.244553 0.966491 -1.369316 -0.808007 -7.125000 0.000000 0.000000 25.913533 38.806511 11.191542 -76.765094 48.226723 -58.884537 -2.000328 1.500886 -13.565639 7.125000 0.000000 0.000000 
6.385188 16.197902 22.276653 -1.626154 -2.366275 6.356127 -7.288903 10.946113 -35.714501 13.563790 19.734461 66.759234 0.786028 3.119052 1.124619 0.596300 -4.943400 -13.747200 12.609898 -7.775848 -37.272608 -12.729531 -20.274555 66.681029 -9.139289 16.876266 -0.792442 -0.676900 5.260900 -14.654200 0.955253 -0.796378 -4.703916 -0.855624 -0.247646 -3.080483 4.641585 -0.491121 9.745023 1.522400 -0.403700 11.817600 -46.698426 -39.980912 10.301830 80.963019 -49.439146 -65.417820 0.966455 -1.351983 -0.619626 -7.125000 0.000000 0.000000 26.026383 38.765483 11.093457 -77.003620 48.274845 -59.179819 -1.995492 1.479466 -13.482855 7.125000 0.000000 0.000000 
6.386928 16.189783 22.272246 -1.623167 -2.371702 6.358466 -7.315900 10.976528 -35.770091 13.592971 19.742082 66.846977 0.785233 3.120333 1.039698 0.598800 -4.953600 -13.776300 12.617541 -7.779606 -37.348465 -12.776261 -20.293254 66.806613 -9.121550 16.846766 -0.829335 -0.678800 5.267900 -14.674200 0.949385 -0.767773 -4.703242 -0.875185 -0.234838 -3.084998 4.662423 -0.524939 9.740768 1.548300 -0.417900 11.823600 -46.845868 -40.004818 10.276048 81.129551 -49.473332 -65.581037 0.966729 -1.335351 -0.434987 -7.125000 0.000000 0.000000 26.155139 38.721542 11.011809 -77.244913 48.322690 -59.473920 -1.990843 1.458273 -13.404585 7.125000 0.000000 0.000000 
6.388668 16.182012 22.267722 -1.614942 -2.378676 6.360386 -7.347319 11.000336 -35.830631 13.624453 19.751307 66.943475 0.781557 3.123319 0.972490 0.599600 -4.957100 -13.786200 12.617123 -7.775973 -37.422575 -12.821344 -20.311475 66.928532 -9.105486 16.827410 -0.853723 -0.678900 5.268400 -14.675700 0.944088 -0.741258 -4.703266 -0.887791 -0.222613 -3.092714 4.683527 -0.564694 9.729123 1.572400 -0.434600 11.825600 -46.992288 -40.021582 10.259181 81.291515 -49.506546 -65.738229 0.967272 -1.319016 -0.249719 -7.125000 0.000000 0.000000 26.287246 38.677270 10.939092 -77.488006 48.370464 -59.766669 -1.986185 1.436887 -13.330560 7.125000 0.000000 0.000000 
6.390408 16.174821 22.262967 -1.603394 -2.385223 6.359033 -7.378831 11.016254 -35.893187 13.659175 19.762579 67.050178 0.778261 3.122138 0.924515 0.599300 -4.955900 -13.782700 12.609533 -7.763503 -37.487611 -12.862948 -20.328267 67.041239 -9.093835 16.822623 -0.869575 -0.676000 5.257400 -14.644100 0.940308 -0.719152 -4.703682 -0.887582 -0.211879 -3.102722 4.705554 -0.605843 9.710162 1.596000 -0.452000 11.823800 -47.133314 -40.027723 10.243852 81.453907 -49.540435 -65.898067 0.967855 -1.302946 -0.066296 -7.125000 0.000000 0.000000 26.413322 38.637405 10.870665 -77.725910 48.416595 -60.050124 -1.981881 1.415057 -13.257039 7.125000 0.000000 0.000000 
6.391916 16.167977 22.258095 -1.589424 -2.386336 6.354022 -7.407264 11.019026 -35.956219 13.697510 19.776463 67.167756 0.778103 3.111595 0.897822 0.597700 -4.949300 -13.764100 12.596107 -7.746428 -37.540975 -12.900566 -20.342496 67.141352 -9.087669 16.831179 -0.885377 -0.670400 5.235900 -14.582700 0.938302 -0.703798 -4.704401 -0.875063 -0.204091 -3.113573 4.728965 -0.647004 9.684946 1.619200 -0.469200 11.819900 -47.265878 -40.019680 10.226323 81.623729 -49.577433 -66.068598 0.968403 -1.286928 0.110730 -7.125000 0.000000 0.000000 26.529137 38.602427 10.806443 -77.954186 48.460246 -60.319382 -1.977783 1.393248 -13.189120 7.125000 0.000000 0.000000 
6.393075 16.161482 22.253108 -1.576543 -2.379543 6.343505 -7.428067 11.007430 -36.015436 13.738936 19.792651 67.293990 0.780687 3.092963 0.890909 0.595000 -4.938100 -13.732000 12.581260 -7.727803 -37.579832 -12.934330 -20.353971 67.227941 -9.086499 16.845665 -0.911993 -0.661800 5.203100 -14.488600 0.938157 -0.696265 -4.705058 -0.849299 -0.199646 -3.121713 4.756426 -0.683708 9.656597 1.648500 -0.485300 11.817600 -47.387708 -39.999085 10.205747 81.800165 -49.617445 -66.249164 0.968777 -1.271086 0.273917 -7.125000 0.000000 0.000000 26.629907 38.575137 10.748038 -78.169243 48.500628 -60.569296 -1.973526 1.372676 -13.133554 7.125000 0.000000 0.000000 
6.394235 16.155335 22.248120 -1.567970 -2.360767 6.328936 -7.437860 10.978660 -36.070256 13.782803 19.810835 67.426374 0.783147 3.072202 0.897393 0.593400 -4.931600 -13.713500 12.571931 -7.713794 -37.610143 -12.964971 -20.363036 67.304543 -9.085782 16.853453 -0.948076 -0.650200 5.158100 -14.360200 0.939444 -0.696462 -4.706125 -0.817302 -0.198821 -3.134434 4.785823 -0.715665 9.623523 1.682200 -0.499900 11.809800 -47.499115 -39.963968 10.189414 81.981677 -49.660210 -66.435999 0.968669 -1.255660 0.415432 -7.125000 0.000000 0.000000 26.718864 38.552728 10.702200 -78.371585 48.537365 -60.799606 -1.968997 1.354236 -13.089679 7.125000 0.000000 0.000000 
6.395047 16.149303 22.242785 -1.563706 -2.331020 6.311388 -7.437773 10.935403 -36.120416 13.827337 19.830116 67.559462 0.787045 3.047268 0.915664 0.591300 -4.923000 -13.689100 12.570926 -7.708030 -37.638064 -12.992958 -20.370257 67.375397 -9.081351 16.846039 -0.986914 -0.635600 5.100700 -14.196000 0.941922 -0.703716 -4.707562 -0.783078 -0.201380 -3.152405 4.813334 -0.746065 9.585553 1.713500 -0.513900 11.794000 -47.601519 -39.914147 10.178963 82.165316 -49.705569 -66.625857 0.967944 -1.240715 0.528421 -7.125000 0.000000 0.000000 26.800284 38.535108 10.671278 -78.561515 48.570600 -61.010258 -1.964115 1.337890 -13.057439 7.125000 0.000000 0.000000 
6.395743 16.143388 22.237450 -1.564902 -2.293485 6.291594 -7.428404 10.881843 -36.164297 13.870753 19.849278 67.688256 0.792527 3.019486 0.938838 0.589200 -4.914600 -13.665100 12.581707 -7.712511 -37.669085 -13.019480 -20.376697 67.446187 -9.069005 16.815008 -1.020695 -0.618200 5.031800 -13.999300 0.945116 -0.715687 -4.709265 -0.749588 -0.206399 -3.175216 4.838294 -0.776697 9.542809 1.741800 -0.527900 11.769600 -47.689964 -39.855488 10.175211 82.339152 -49.750020 -66.805803 0.966635 -1.227064 0.610916 -7.125000 0.000000 0.000000 26.874166 38.519583 10.654855 -78.739171 48.600884 -61.202253 -1.958596 1.324207 -13.036437 7.125000 0.000000 0.000000 
6.396439 16.137705 22.232114 -1.569587 -2.253015 6.271131 -7.414268 10.824596 -36.201722 13.910597 19.866961 67.806124 0.802496 2.984977 0.961477 0.585000 -4.897400 -13.616200 12.603483 -7.726452 -37.708317 -13.045317 -20.383404 67.521502 -9.046075 16.758207 -1.041251 -0.598400 4.952200 -13.772200 0.948239 -0.728533 -4.711469 -0.718071 -0.211964 -3.205595 4.861912 -0.811247 9.496330 1.769400 -0.544100 11.736600 -47.768849 -39.794114 10.183229 82.498664 -49.791042 -66.968822 0.964788 -1.214926 0.657034 -7.125000 0.000000 0.000000 26.943480 38.500578 10.655165 -78.904531 48.628782 -61.376886 -1.952419 1.313112 -13.023665 7.125000 0.000000 0.000000 
6.397251 16.132485 22.226779 -1.575573 -2.215823 6.251668 -7.399197 10.771274 -36.232678 13.944822 19.882098 67.907307 0.818008 2.943089 0.976717 0.579900 -4.876300 -13.556100 12.633595 -7.746909 -37.756540 -13.070654 -20.390954 67.602435 -9.012214 16.677186 -1.043152 -0.577400 4.866000 -13.526700 0.950879 -0.740470 -4.713596 -0.689176 -0.217478 -3.237226 4.884983 -0.851559 9.447642 1.796500 -0.562900 11.699200 -47.832067 -39.735154 10.195036 82.633266 -49.826160 -67.106543 0.962707 -1.204403 0.663744 -7.125000 0.000000 0.000000 27.004276 38.480181 10.666650 -79.055948 48.654388 -61.533763 -1.945826 1.304148 -13.015533 7.125000 0.000000 0.000000 
